<svg xmlns="http://www.w3.org/2000/svg" width="283" height="33" fill="none" viewBox="0 0 283 33">
  <path fill="#fff" d="m74.642 11.287.164 2.031c2.146.892 1.621.996 1.947-.666l-2.11-1.365Zm-.302-8.225-2.764 4.464 5.464-1.15 2.841-3.845-5.542.531Z"/>
  <path fill="#fff" d="m73.553 8.206 4.217-.935 2.179-2.912 2.19 2.686-2.325 2.733-4.071 1.114-2.19-2.686Z"/>
  <path stroke="#fff" stroke-width=".5" d="m71.576 7.526 2.763-4.464 5.542-.53-2.841 3.843-5.464 1.151Zm0 0 3.066 3.76m0 0 .164 2.032c2.146.892 1.621.996 1.947-.666l-2.11-1.365Zm-1.09-3.08 4.218-.935 2.179-2.912 2.19 2.686-2.325 2.733-4.071 1.114-2.19-2.686Z"/>
  <path fill="#3859E9" d="M89.451 15.898a3.065 3.065 0 0 0-.426-.946 2.723 2.723 0 0 0-.69-.707 2.962 2.962 0 0 0-.938-.435 4.145 4.145 0 0 0-1.159-.153c-.846 0-1.58.204-2.199.613-.613.41-1.088 1.006-1.423 1.79-.335.778-.503 1.724-.503 2.838 0 1.12.162 2.074.486 2.864.324.79.793 1.392 1.406 1.806.614.415 1.358.623 2.233.623.773 0 1.426-.125 1.96-.375.54-.256.95-.617 1.228-1.083.278-.466.417-1.014.417-1.645l.784.094h-4.244v-3.076h7.526v2.31c0 1.562-.333 2.9-.997 4.013a6.632 6.632 0 0 1-2.728 2.566c-1.153.596-2.48.895-3.98.895-1.665 0-3.128-.361-4.389-1.083-1.261-.721-2.244-1.75-2.949-3.085-.704-1.341-1.057-2.932-1.057-4.773 0-1.432.213-2.702.64-3.81.426-1.113 1.02-2.056 1.78-2.829a7.699 7.699 0 0 1 2.66-1.756 8.84 8.84 0 0 1 3.264-.596 8.89 8.89 0 0 1 2.821.434c.875.29 1.648.7 2.318 1.228a6.505 6.505 0 0 1 1.645 1.883 6.17 6.17 0 0 1 .784 2.395h-4.27Zm5.944 11.753V14.56h4.049v2.386h.136c.239-.863.628-1.505 1.168-1.926a2.949 2.949 0 0 1 1.883-.639c.193 0 .392.014.597.043.204.022.395.06.571.11v3.623a3.994 3.994 0 0 0-.784-.162 6.965 6.965 0 0 0-.853-.06c-.494 0-.94.11-1.338.332-.392.216-.701.52-.929.912-.221.387-.332.841-.332 1.364v7.108h-4.168Zm12.3.221c-.835 0-1.577-.139-2.224-.417a3.461 3.461 0 0 1-1.526-1.278c-.369-.574-.554-1.293-.554-2.157 0-.727.128-1.34.384-1.84.255-.5.607-.907 1.056-1.22a4.975 4.975 0 0 1 1.551-.707 10.093 10.093 0 0 1 1.875-.332c.745-.068 1.344-.14 1.799-.213.454-.08.784-.19.988-.333a.716.716 0 0 0 .316-.622v-.042c0-.438-.151-.776-.452-1.015-.301-.238-.707-.358-1.219-.358-.551 0-.994.12-1.329.358a1.574 1.574 0 0 0-.639.989l-3.844-.136a4.535 4.535 0 0 1 .878-2.131c.477-.63 1.13-1.125 1.96-1.483.835-.364 1.838-.546 3.008-.546.836 0 1.605.1 2.31.299a5.721 5.721 0 0 1 1.841.852c.523.37.926.824 1.21 1.364.29.54.435 1.156.435 1.85v8.897h-3.921v-1.824h-.102a3.71 3.71 0 0 1-.895 1.125 3.563 3.563 0 0 1-1.27.69 5.394 5.394 0 0 1-1.636.23Zm1.287-2.727c.449 0 .852-.09 1.21-.273.364-.181.654-.431.869-.75a1.98 1.98 0 0 0 .324-1.125v-1.244a2.47 2.47 0 0 1-.434.17c-.165.052-.347.1-.546.146a9.71 9.71 0 0 1-.613.119 53.66 53.66 0 0 1-.606.094 3.728 3.728 0 0 0-1.005.29c-.273.13-.483.3-.631.51a1.253 1.253 0 0 0-.213.734c0 .431.153.761.46.988.313.228.708.341 1.185.341Zm12.866 2.693a4.82 4.82 0 0 1-2.633-.75c-.79-.5-1.421-1.25-1.892-2.25-.472-1-.708-2.241-.708-3.724 0-1.54.245-2.807.733-3.801.489-.994 1.128-1.73 1.918-2.207a4.9 4.9 0 0 1 2.565-.716c.688 0 1.276.119 1.765.357a3.64 3.64 0 0 1 1.21.904c.318.37.559.753.724 1.15h.085v-6.605h4.168v17.455h-4.125v-2.122h-.128a4.088 4.088 0 0 1-.75 1.133c-.324.353-.73.637-1.219.853-.483.215-1.054.323-1.713.323Zm1.449-3.247c.506 0 .938-.142 1.296-.426.358-.29.633-.696.826-1.219.194-.522.29-1.136.29-1.84 0-.716-.096-1.333-.29-1.85-.187-.517-.463-.915-.826-1.193-.358-.279-.79-.418-1.296-.418-.517 0-.954.142-1.312.426-.358.284-.631.685-.818 1.202-.182.517-.273 1.128-.273 1.832 0 .705.094 1.319.281 1.841.188.523.457.93.81 1.22.358.283.795.425 1.312.425Zm12.278 3.06V10.196h7.278c1.307 0 2.401.185 3.282.554.886.37 1.551.887 1.994 1.552.449.664.673 1.434.673 2.31 0 .664-.139 1.258-.417 1.78a3.679 3.679 0 0 1-1.151 1.287 4.592 4.592 0 0 1-1.696.716v.17a4.237 4.237 0 0 1 1.952.572c.602.346 1.085.83 1.449 1.449.363.613.545 1.34.545 2.181 0 .938-.239 1.776-.716 2.515-.477.733-1.168 1.312-2.071 1.738-.903.42-2 .63-3.29.63h-7.832Zm4.219-3.4h2.608c.914 0 1.588-.174 2.02-.52.437-.347.656-.83.656-1.45 0-.448-.105-.835-.316-1.159a2.027 2.027 0 0 0-.894-.758c-.387-.182-.85-.273-1.39-.273h-2.684v4.16Zm0-6.879h2.335c.46 0 .869-.076 1.227-.23.358-.153.637-.375.835-.664.205-.29.307-.64.307-1.049 0-.585-.207-1.045-.622-1.38-.415-.336-.974-.503-1.679-.503h-2.403v3.826Zm10.718 10.279V14.56h4.049v2.386h.136c.239-.863.628-1.505 1.168-1.926a2.949 2.949 0 0 1 1.883-.639c.193 0 .392.014.597.043.204.022.395.06.571.11v3.623a3.978 3.978 0 0 0-.784-.162 6.952 6.952 0 0 0-.853-.06c-.494 0-.94.11-1.338.332-.392.216-.701.52-.929.912-.221.387-.332.841-.332 1.364v7.108h-4.168Zm9.102 0V14.56h4.168v13.09h-4.168Zm2.088-14.617a2.15 2.15 0 0 1-1.508-.58c-.421-.391-.631-.863-.631-1.414 0-.545.21-1.011.631-1.398.42-.392.923-.588 1.508-.588.591 0 1.094.196 1.509.588.42.387.63.853.63 1.398 0 .551-.21 1.023-.63 1.415-.415.386-.918.58-1.509.58Zm8.514 14.804c-.966 0-1.844-.25-2.634-.75-.79-.5-1.42-1.25-1.892-2.25s-.707-2.241-.707-3.724c0-1.54.244-2.807.733-3.801.488-.994 1.127-1.73 1.917-2.207a4.903 4.903 0 0 1 2.566-.716c.687 0 1.275.119 1.764.357a3.64 3.64 0 0 1 1.21.904c.318.37.56.753.724 1.15h.086v-6.605h4.167v17.455h-4.125v-2.122h-.128a4.088 4.088 0 0 1-.75 1.133c-.323.353-.73.637-1.218.853-.483.215-1.054.323-1.713.323Zm1.448-3.247c.506 0 .938-.142 1.296-.426.358-.29.633-.696.827-1.219.193-.522.289-1.136.289-1.84 0-.716-.096-1.333-.289-1.85-.188-.517-.463-.915-.827-1.193-.358-.279-.79-.418-1.296-.418-.517 0-.954.142-1.312.426-.358.284-.631.685-.818 1.202-.182.517-.273 1.128-.273 1.832 0 .705.094 1.319.281 1.841.188.523.458.93.81 1.22.358.283.795.425 1.312.425Zm14.224 8.242c-1.244 0-2.31-.174-3.196-.52-.886-.347-1.582-.821-2.088-1.424a3.935 3.935 0 0 1-.912-2.045l3.946-.222c.074.268.21.5.409.7.205.198.469.352.793.46a3.73 3.73 0 0 0 1.159.162c.699 0 1.276-.17 1.73-.512.46-.335.69-.923.69-1.764v-2.301h-.144a3.105 3.105 0 0 1-.75 1.082 3.565 3.565 0 0 1-1.253.75c-.495.182-1.063.273-1.705.273a5.306 5.306 0 0 1-2.625-.665c-.79-.449-1.423-1.142-1.9-2.08-.472-.943-.708-2.156-.708-3.639 0-1.528.244-2.787.733-3.775.489-.994 1.128-1.73 1.918-2.207a4.897 4.897 0 0 1 2.565-.716c.688 0 1.276.119 1.764.357.495.233.901.535 1.219.904.318.37.56.753.724 1.15h.12V14.56h4.15v13.142c0 1.108-.278 2.043-.835 2.804-.557.761-1.335 1.338-2.335 1.73-1 .398-2.156.597-3.469.597Zm.128-8.395c.506 0 .937-.134 1.295-.4.358-.268.634-.651.827-1.151.193-.5.29-1.1.29-1.799 0-.71-.097-1.32-.29-1.832-.187-.517-.463-.915-.827-1.193-.358-.279-.789-.418-1.295-.418-.517 0-.955.142-1.313.426-.357.284-.63.685-.818 1.202-.182.511-.272 1.117-.272 1.815 0 .7.093 1.299.281 1.799.187.5.457.883.809 1.15.358.267.796.4 1.313.4Zm14.288 3.46c-1.37 0-2.552-.27-3.546-.81a5.603 5.603 0 0 1-2.284-2.326c-.528-1.012-.793-2.213-.793-3.605 0-1.353.268-2.535.802-3.546a5.787 5.787 0 0 1 2.258-2.37c.972-.567 2.117-.851 3.435-.851.932 0 1.784.144 2.557.434a5.5 5.5 0 0 1 2.002 1.287c.563.568 1 1.27 1.313 2.105.312.83.469 1.781.469 2.855v1.04h-11.378v-2.42h7.5a2.356 2.356 0 0 0-.315-1.185 2.145 2.145 0 0 0-.844-.81 2.44 2.44 0 0 0-1.219-.298c-.466 0-.884.105-1.253.315a2.322 2.322 0 0 0-.878.844 2.377 2.377 0 0 0-.341 1.202v2.463c0 .534.106 1.003.316 1.406.21.398.508.708.895.93.386.22.846.332 1.38.332.37 0 .705-.052 1.006-.154a2.15 2.15 0 0 0 .776-.452c.215-.198.377-.443.485-.732l3.827.11a4.731 4.731 0 0 1-1.048 2.242c-.534.63-1.236 1.122-2.105 1.474-.87.347-1.875.52-3.017.52Z"/>
</svg>
